<svg width="21" height="32" viewBox="0 0 21 32" fill="none" xmlns="http://www.w3.org/2000/svg">
<mask id="mask0_385_2752" style="mask-type:luminance" maskUnits="userSpaceOnUse" x="0" y="0" width="15" height="20">
<path d="M0 19.7424L14.1023 5.63984V9.42283e-06L0 14.1042V19.7424Z" fill="white"/>
</mask>
<g mask="url(#mask0_385_2752)">
<path d="M0 19.7424L14.1023 5.63984V9.42283e-06L0 14.1042V19.7424Z" fill="url(#paint0_linear_385_2752)"/>
</g>
<mask id="mask1_385_2752" style="mask-type:luminance" maskUnits="userSpaceOnUse" x="0" y="13" width="15" height="19">
<path d="M0 31.9998L14.1023 17.8956V13.3385L0 27.4411V31.9998Z" fill="white"/>
</mask>
<g mask="url(#mask1_385_2752)">
<path d="M0 31.9998L14.1023 17.8956V13.3385L0 27.4411V31.9998Z" fill="url(#paint1_linear_385_2752)"/>
</g>
<mask id="mask2_385_2752" style="mask-type:luminance" maskUnits="userSpaceOnUse" x="6" y="0" width="15" height="20">
<path d="M6.10986 19.7424L20.2143 5.63984V0.900715L6.10986 15.0051V19.7424Z" fill="white"/>
</mask>
<g mask="url(#mask2_385_2752)">
<path d="M6.10986 19.7424L20.2143 5.63984V0.900715L6.10986 15.0051V19.7424Z" fill="url(#paint2_linear_385_2752)"/>
</g>
<mask id="mask3_385_2752" style="mask-type:luminance" maskUnits="userSpaceOnUse" x="6" y="13" width="15" height="19">
<path d="M20.2143 13.1583L6.10986 27.2609V32L20.2143 17.8956V13.1583Z" fill="white"/>
</mask>
<g mask="url(#mask3_385_2752)">
<path d="M20.2143 13.1583L6.10986 27.2609V32L20.2143 17.8956V13.1583Z" fill="url(#paint3_linear_385_2752)"/>
</g>
<defs>
<linearGradient id="paint0_linear_385_2752" x1="-0.000262672" y1="9.87122" x2="14.1023" y2="9.87122" gradientUnits="userSpaceOnUse">
<stop stop-color="#0D9488"/>
<stop offset="1" stop-color="#0891B2"/>
</linearGradient>
<linearGradient id="paint1_linear_385_2752" x1="-0.000262672" y1="22.6691" x2="14.1023" y2="22.6691" gradientUnits="userSpaceOnUse">
<stop stop-color="#0D9488"/>
<stop offset="1" stop-color="#0891B2"/>
</linearGradient>
<linearGradient id="paint2_linear_385_2752" x1="6.10986" y1="10.3214" x2="20.2142" y2="10.3214" gradientUnits="userSpaceOnUse">
<stop stop-color="#0D9488"/>
<stop offset="1" stop-color="#0891B2"/>
</linearGradient>
<linearGradient id="paint3_linear_385_2752" x1="6.10986" y1="22.579" x2="20.2142" y2="22.579" gradientUnits="userSpaceOnUse">
<stop stop-color="#0D9488"/>
<stop offset="1" stop-color="#0891B2"/>
</linearGradient>
</defs>
</svg>
